# xmcd
#
# Track frame offsets: 
#        150
#        12600
#        25500
#        38475
#        50850
#        63450
#        75975
#        87562
#        99412
#        111825
#        121575
#        134775
#
# Disc length: 1962 seconds
#
# Revision: 4
# Processed by: cddbd v1.5.2PL0 Copyright (c) Steve Scherf et al.
# Submitted via: ExactAudioCopy v1.0b3
#
DISCID=9807a80c
DTITLE=Clarence "Gatemouth" Brown - The Original Peacock Recordings
DYEAR=1983
DGENRE=Blues
TTITLE0=Midnight Hour
TTITLE1=Sad Hour
TTITLE2=Ain't That Dandy
TTITLE3=That's Your Daddy Yaddy Yo
TTITLE4=Dirty Work at the Crossroads
TTITLE5=Hurry Back Good News
TTITLE6=Okie Dokie Stomp
TTITLE7=Good Looking Woman
TTITLE8=Gate's Salty Blues
TTITLE9=Just Before Dawn
TTITLE10=Depression Blues
TTITLE11=For Now So Long
EXTD=
EXTT0=
EXTT1=
EXTT2=
EXTT3=
EXTT4=
EXTT5=
EXTT6=
EXTT7=
EXTT8=
EXTT9=
EXTT10=
EXTT11=
PLAYORDER=
